<?xml version="1.0" encoding="UTF-8" standalone="no"?>
<!DOCTYPE svg PUBLIC "-//W3C//DTD SVG 1.1//EN" "http://www.w3.org/Graphics/SVG/1.1/DTD/svg11.dtd">
<svg width="100%" height="100%" viewBox="0 0 358 400" version="1.1" xmlns="http://www.w3.org/2000/svg" xmlns:xlink="http://www.w3.org/1999/xlink" xml:space="preserve" xmlns:serif="http://www.serif.com/" style="fill-rule:evenodd;clip-rule:evenodd;stroke-linecap:round;stroke-linejoin:round;stroke-miterlimit:1.5;">
    <rect id="Artboard6" x="0" y="0" width="357.859" height="400" style="fill:none;"/>
    <clipPath id="_clip1">
        <rect x="0" y="0" width="357.859" height="400"/>
    </clipPath>
    <g clip-path="url(#_clip1)">
        <rect x="-21.071" y="-0" width="400" height="400" style="fill:rgb(236,31,39);"/>
        <circle cx="178.929" cy="200" r="200" style="fill:rgb(236,31,39);"/>
        <g>
            <path d="M7.416,314.869C46.832,336.62 57.324,313.95 76.913,315.66C91.287,316.916 96.219,331.419 96.219,331.419" style="fill:none;stroke:white;stroke-width:8.24px;"/>
            <path d="M349.18,271.486C311.135,300.171 275.607,281.417 262.286,274.146C241.432,262.764 215.688,284.579 215.688,284.579" style="fill:none;stroke:rgb(35,31,32);stroke-width:7.51px;"/>
            <path d="M350.443,305.452C311.754,334.068 293.085,313.785 275.334,310.056C258.701,306.562 247.8,320.027 247.8,320.027" style="fill:none;stroke:rgb(35,31,32);stroke-width:8.24px;"/>
            <path d="M244.459,312.474L243.451,311.483C241.044,309.081 214.775,282.813 194.84,262.88C193.391,261.431 191.044,261.431 189.596,262.88C188.147,264.329 188.147,266.675 189.596,268.124C209.531,288.062 235.805,314.331 238.21,316.73L239.273,317.775C243.086,321.507 253.218,331.418 253.258,338.87C253.267,340.712 252.632,342.21 251.256,343.586C249.26,345.582 247.052,346.475 244.749,346.512C239.631,346.456 234.83,342.072 233.801,341.072C231.664,338.844 229.497,336.919 227.824,335.439C227.088,334.788 226.488,334.26 226.115,333.889L210.084,317.86L204.841,323.103L220.871,339.133C221.32,339.582 222.029,340.217 222.91,340.996C226.364,344.05 234.453,351.2 234.618,356.594C234.658,357.933 234.157,359.075 233.044,360.19C231.332,361.899 229.582,362.71 227.708,362.6C223.889,362.427 220.027,358.741 218.863,357.339C218.857,357.332 218.848,357.33 218.843,357.323C217.811,355.963 216.663,354.59 215.253,353.182L195.967,333.887L190.723,339.131L210.009,358.428C213.152,361.566 215.056,364.429 215.667,366.929C216.281,369.438 215.575,371.532 213.379,373.728C209.723,377.382 204.276,374.746 202.431,373.677C201.539,372.161 200.475,370.71 199.177,369.415C194.695,364.933 183.205,351.994 183.089,351.864C181.727,350.328 179.383,350.189 177.854,351.553C176.322,352.912 176.183,355.256 177.544,356.789C178.022,357.325 189.294,370.023 193.933,374.661C195.845,376.57 197.146,378.967 197.502,381.235C197.885,383.654 197.198,385.702 195.41,387.493C194.668,388.234 193.826,388.498 192.728,388.553C190.239,388.536 184.381,386.768 173.136,375.163C171.713,373.691 169.365,373.659 167.893,375.081C166.421,376.507 166.385,378.854 167.811,380.325C177.961,390.801 186.093,395.918 192.669,395.97L192.768,395.97C195.813,395.97 198.537,394.854 200.654,392.737C203.486,389.904 204.967,386.349 204.992,382.543C206.227,382.813 207.514,382.988 208.83,382.988C212.176,382.988 215.656,381.942 218.623,378.972C221.548,376.049 223.106,372.711 223.264,369.168C224.544,369.599 225.881,369.937 227.317,370.008C227.54,370.02 227.763,370.026 227.983,370.026C231.726,370.026 235.278,368.447 238.289,365.434C240.841,362.885 242.133,359.747 242.029,356.368C242,355.439 241.851,354.518 241.633,353.606C242.603,353.793 243.6,353.915 244.621,353.929L244.85,353.929C249.196,353.929 253.116,352.214 256.5,348.83C259.29,346.043 260.695,342.677 260.675,338.829C260.617,328.281 249.295,317.205 244.459,312.474" style="fill:white;fill-rule:nonzero;"/>
            <path d="M169.255,369.832C165.244,379.827 152.244,392.586 146.073,392.583C145.291,392.583 144.929,392.351 144.626,392.004C141.788,388.741 146.529,379.752 156.154,370.142C160.471,365.831 164.726,363.255 167.535,363.255C168.491,363.255 169.231,363.554 169.933,364.226C170.48,364.747 170.501,366.726 169.255,369.832M122.468,381.594C117.826,376.953 126.345,364.269 136.844,353.758C138.42,352.184 140.501,350.105 142.761,348.115C142.857,348.021 142.979,347.971 143.066,347.866C143.078,347.851 143.086,347.838 143.098,347.824C146.826,344.581 150.992,341.654 154.169,341.654C155.276,341.654 156.151,342.039 157.007,342.9C158.376,344.276 159.01,345.762 159.005,347.579C158.978,354.842 148.922,364.808 144.628,369.064L143.59,370.092C143.064,370.62 142.495,371.205 141.885,371.831C137.765,376.058 130.872,383.132 125.847,383.132C124.591,383.13 123.517,382.643 122.468,381.594M105.416,367.421C101.098,363.107 109.172,351.151 119.085,341.222C129.003,331.32 135.086,328.44 138.811,331.884C140.218,333.185 143.097,335.875 137.618,342.79C135.584,344.597 133.573,346.541 131.599,348.514C127.123,352.995 121.611,359.18 117.889,365.57C114.781,368.186 109.441,371.446 105.416,367.421M91.803,352.072C89.915,350.183 92.038,345.852 93.474,343.438C96.264,338.745 100.56,334.165 102.871,331.853L103.821,330.9C106.949,327.75 112.184,322.48 115.354,322.48C115.754,322.48 116.248,322.561 116.884,323.167C117.539,323.79 117.836,324.52 117.848,325.531C117.904,330.097 112.366,337.702 106.851,343.216L105.53,344.563C102.655,347.512 97.304,353.005 93.797,353.002C93.303,353.002 92.629,352.898 91.803,352.072M167.535,355.839C166.402,355.839 165.273,356.045 164.153,356.335C165.524,353.478 166.411,350.53 166.421,347.605C166.435,343.795 165.037,340.452 162.265,337.667C160.031,335.425 157.233,334.237 154.169,334.237C152.198,334.237 150.224,334.72 148.255,335.539C148.143,331.313 145.831,328.273 143.845,326.438C137.936,320.976 131.109,322.761 125.214,326.412C125.234,326.088 125.268,325.762 125.264,325.441C125.228,322.44 124.098,319.795 121.998,317.796C120.12,316.008 117.823,315.064 115.354,315.064C109.097,315.064 103.253,320.948 98.56,325.673L97.628,326.609C95.072,329.164 90.301,334.26 87.097,339.649C81.487,349.088 83.709,354.465 86.56,357.316C88.591,359.347 91.094,360.419 93.797,360.419C95.044,360.419 96.271,360.135 97.48,359.738C96.147,364.519 96.57,369.067 100.17,372.665C102.89,375.386 106.173,376.733 109.712,376.73C111.069,376.73 112.466,376.508 113.88,376.113C113.344,380.078 114.175,383.791 117.225,386.838C119.686,389.301 122.586,390.546 125.845,390.549L125.847,390.549C129.586,390.549 133.278,388.827 136.689,386.451C135.894,390.209 136.378,393.822 139.029,396.871C140.809,398.919 143.244,400 146.073,400L146.075,400C156.952,400 171.81,383.376 176.137,372.596C179.18,365.011 177.232,360.943 175.061,358.866C172.989,356.884 170.388,355.839 167.535,355.839" style="fill:rgb(35,31,32);fill-rule:nonzero;"/>
            <path d="M7.7,277.653C42.68,300.861 71.294,282.249 83.625,278.175C112.689,268.572 126.637,295.202 126.637,295.202" style="fill:none;stroke:white;stroke-width:7.51px;"/>
            <path d="M208.144,224.763L210.958,225.418" style="fill:none;fill-rule:nonzero;"/>
            <path d="M167.496,172.79C167.496,172.79 153.028,144.277 107.895,144.249C62.762,144.222 31.395,189.766 31.395,189.766C40.871,213.878 75.646,236.121 106.404,234.873C136.869,233.637 161.247,224.606 167.496,204.604" style="fill:none;stroke:white;stroke-width:8.49px;"/>
            <path d="M179.841,172.79C179.841,172.79 204.351,139.976 241.557,139.546C291.697,138.967 332.712,183.052 332.712,183.052C316.77,203.449 284.719,232.819 244.185,233.261C207.507,233.661 187.328,225.683 179.841,205.956" style="fill:none;stroke:white;stroke-width:8.49px;"/>
            <path d="M179.841,263.041L179.841,172.79C175.488,168.139 171.38,168.282 167.496,172.79L167.496,263.041" style="fill:none;stroke:white;stroke-width:8.49px;"/>
            <path d="M332.712,183.052L179.841,189.586" style="fill:none;stroke:white;stroke-width:8.49px;"/>
            <path d="M31.395,189.766L167.496,189.586" style="fill:none;stroke:white;stroke-width:8.49px;"/>
            <path d="M135.951,189.766L119.498,144.925" style="fill:none;stroke:white;stroke-width:8.49px;"/>
            <path d="M107.895,189.044L99.445,144.775" style="fill:none;stroke:white;stroke-width:8.49px;"/>
            <path d="M80.05,189.766L59.588,161.601" style="fill:none;stroke:white;stroke-width:8.49px;"/>
            <path d="M80.05,189.766L59.588,220.998" style="fill:none;stroke:white;stroke-width:8.49px;"/>
            <path d="M107.895,189.586L82.425,231.558" style="fill:none;stroke:white;stroke-width:8.49px;"/>
            <path d="M135.951,189.586L110.788,234.639" style="fill:none;stroke:white;stroke-width:8.49px;"/>
            <path d="M205.825,188.476L226.836,141.421" style="fill:none;stroke:white;stroke-width:8.49px;"/>
            <path d="M205.825,188.476L217.205,231.558" style="fill:none;stroke:white;stroke-width:8.49px;"/>
            <path d="M226.836,187.578L260.734,141.421" style="fill:none;stroke:white;stroke-width:8.49px;"/>
            <path d="M226.836,187.578L251.623,231.558" style="fill:none;stroke:white;stroke-width:8.49px;"/>
            <path d="M264.104,185.985L286.024,150.9" style="fill:none;stroke:white;stroke-width:8.49px;"/>
            <path d="M264.104,185.985L286.024,222.282" style="fill:none;stroke:white;stroke-width:8.49px;"/>
            <path d="M293.365,184.734L304.571,160.186" style="fill:none;stroke:white;stroke-width:8.49px;"/>
            <path d="M293.365,184.734L308.843,207.412" style="fill:none;stroke:white;stroke-width:8.49px;"/>
            <path d="M121.546,145.658C121.546,145.658 98.696,113.275 106.404,86.856C114.112,60.436 135.951,46.263 135.951,46.263" style="fill:none;stroke:white;stroke-width:8.49px;"/>
            <path d="M83.768,148.549C83.768,148.549 58.108,115.34 74.758,90.433C91.408,65.527 118.212,63.614 118.212,63.614" style="fill:none;stroke:white;stroke-width:8.49px;"/>
            <path d="M93.676,72.256C93.676,72.256 87.137,41.683 110.81,24.247C136.404,5.395 149.824,35.565 149.824,35.565" style="fill:none;stroke:white;stroke-width:8.49px;"/>
            <path d="M142.946,25.602C142.946,25.602 158.833,1.542 189.794,6.496C220.754,11.45 227.084,31.815 227.084,31.815" style="fill:none;stroke:white;stroke-width:8.49px;"/>
            <path d="M251.715,93.323C251.715,93.323 270.363,80.873 261.281,54.315C252.199,27.758 201.817,32.778 201.817,32.778C201.817,32.778 188.705,47.923 172.55,48.052C155.255,48.189 151.609,36.916 151.609,36.916" style="fill:none;stroke:white;stroke-width:8.49px;"/>
            <path d="M153.037,39.607C153.037,39.607 158.696,24.797 172.869,25.76C187.042,26.723 190.67,42.101 190.67,42.101" style="fill:none;stroke:white;stroke-width:8.49px;"/>
            <path d="M201.817,33.908C201.817,33.908 191.617,68.115 171.854,72.256C152.091,76.398 136.266,54.315 136.266,54.315" style="fill:none;stroke:white;stroke-width:8.49px;"/>
            <path d="M148.984,33.908C138.468,41.447 133.789,40.134 136.266,66.797C138.743,93.461 143.559,124.737 211.535,145.618" style="fill:none;stroke:white;stroke-width:8.49px;"/>
            <path d="M140.552,90.972C140.552,90.972 163.787,114.514 196.261,93.323C228.735,72.132 234.481,31.127 201.817,32.228" style="fill:none;stroke:white;stroke-width:8.49px;"/>
            <path d="M223.649,46.401C223.649,46.401 251.165,58.372 251.715,93.323C252.265,128.274 233.916,139.833 233.916,139.833" style="fill:none;stroke:white;stroke-width:8.49px;"/>
            <path d="M261.281,80.931C261.281,80.931 280.199,96.075 278.135,112.587C276.071,129.1 261.281,142.447 261.281,142.447" style="fill:none;stroke:white;stroke-width:8.49px;"/>
            <path d="M60.067,253.341L113.018,229.398C128.428,221.398 141.349,223.353 153.076,230.089L168.04,247.586L150.773,260.248L104.96,261.859L60.067,253.341Z" style="fill:rgb(236,31,39);"/>
            <path d="M9.427,238.516C60.165,272.363 100.372,225.144 127.025,224.468C157.624,223.691 171.038,245.129 171.038,245.129" style="fill:rgb(236,31,39);stroke:white;stroke-width:7.51px;"/>
            <path d="M347.911,237.25C318.755,261.671 294.93,250.944 279.392,242.127C268.629,236.019 255.691,222.069 237.299,221.739C220.647,221.528 207.954,220.358 185.361,235.818C169.986,246.339 143.116,264.485 142.927,281.647C142.739,298.809 143.035,314.311 157.139,314.43C173.352,314.567 167.529,290.546 168.937,282.487C170.204,275.237 187.481,266.021 191.814,265.371" style="fill:rgb(236,31,39);stroke:rgb(35,31,32);stroke-width:8.24px;"/>
        </g>
    </g>
</svg>
