<?xml version="1.0" encoding="UTF-8" standalone="no"?>
<!DOCTYPE svg PUBLIC "-//W3C//DTD SVG 1.1//EN" "http://www.w3.org/Graphics/SVG/1.1/DTD/svg11.dtd">
<svg width="100%" height="100%" viewBox="0 0 400 400" version="1.1" xmlns="http://www.w3.org/2000/svg" xmlns:xlink="http://www.w3.org/1999/xlink" xml:space="preserve" xmlns:serif="http://www.serif.com/" style="fill-rule:evenodd;clip-rule:evenodd;stroke-linecap:round;stroke-linejoin:round;stroke-miterlimit:1.5;">
    <rect id="Artboard6" x="0" y="0" width="400" height="400" style="fill:none;"/>
    <clipPath id="_clip1">
        <rect x="0" y="0" width="400" height="400"/>
    </clipPath>
    <g clip-path="url(#_clip1)">
        <rect x="0" y="-0" width="400" height="400" style="fill:rgb(236,31,39);"/>
        <circle cx="200" cy="200" r="200" style="fill:rgb(236,31,39);"/>
        <g>
            <path d="M68.772,285.66C98.93,302.302 106.958,284.957 121.945,286.266C132.943,287.226 136.717,298.323 136.717,298.323" style="fill:none;stroke:white;stroke-width:6.3px;"/>
            <path d="M330.262,252.467C301.153,274.415 273.97,260.065 263.778,254.502C247.822,245.793 228.125,262.485 228.125,262.485" style="fill:none;stroke:rgb(35,31,32);stroke-width:5.75px;"/>
            <path d="M331.228,278.455C301.627,300.349 287.343,284.831 273.761,281.978C261.035,279.304 252.694,289.606 252.694,289.606" style="fill:none;stroke:rgb(35,31,32);stroke-width:6.3px;"/>
            <path d="M250.138,283.827L249.367,283.069C247.525,281.232 227.426,261.133 212.173,245.883C211.065,244.774 209.269,244.774 208.161,245.883C207.053,246.991 207.053,248.786 208.161,249.895C223.414,265.15 243.517,285.248 245.357,287.084L246.17,287.884C249.087,290.739 256.839,298.322 256.87,304.023C256.877,305.433 256.391,306.579 255.338,307.632C253.811,309.159 252.122,309.842 250.36,309.871C246.444,309.828 242.771,306.474 241.983,305.709C240.348,304.004 238.69,302.531 237.41,301.399C236.847,300.9 236.388,300.497 236.102,300.213L223.837,287.948L219.825,291.96L232.09,304.225C232.434,304.569 232.977,305.054 233.651,305.651C236.293,307.987 242.482,313.458 242.608,317.585C242.639,318.609 242.256,319.483 241.404,320.336C240.095,321.644 238.756,322.264 237.321,322.18C234.4,322.047 231.445,319.228 230.554,318.155C230.549,318.149 230.543,318.148 230.538,318.142C229.749,317.102 228.871,316.052 227.792,314.974L213.036,300.211L209.024,304.223L223.78,318.988C226.185,321.389 227.641,323.579 228.109,325.492C228.579,327.411 228.038,329.014 226.358,330.694C223.56,333.49 219.393,331.473 217.982,330.655C217.299,329.496 216.485,328.385 215.492,327.394C212.063,323.965 203.271,314.065 203.183,313.965C202.141,312.79 200.347,312.684 199.177,313.728C198.005,314.768 197.899,316.561 198.94,317.733C199.306,318.144 207.93,327.859 211.48,331.408C212.943,332.869 213.938,334.702 214.21,336.438C214.503,338.289 213.978,339.856 212.61,341.226C212.042,341.793 211.398,341.995 210.557,342.037C208.653,342.024 204.171,340.671 195.567,331.792C194.479,330.666 192.682,330.641 191.556,331.73C190.43,332.82 190.402,334.616 191.493,335.742C199.259,343.757 205.481,347.672 210.513,347.712L210.588,347.712C212.918,347.712 215.002,346.858 216.622,345.238C218.789,343.071 219.922,340.351 219.941,337.438C220.886,337.645 221.871,337.779 222.878,337.779C225.438,337.779 228.1,336.979 230.37,334.706C232.608,332.47 233.8,329.916 233.921,327.205C234.9,327.535 235.924,327.794 237.022,327.848C237.193,327.857 237.363,327.861 237.532,327.861C240.396,327.861 243.114,326.653 245.417,324.348C247.369,322.398 248.358,319.997 248.278,317.412C248.257,316.701 248.143,315.996 247.976,315.298C248.718,315.442 249.481,315.535 250.262,315.546L250.437,315.546C253.762,315.546 256.762,314.233 259.351,311.644C261.485,309.512 262.56,306.936 262.545,303.992C262.5,295.922 253.838,287.447 250.138,283.827" style="fill:white;fill-rule:nonzero;"/>
            <path d="M192.598,327.713C189.529,335.36 179.583,345.123 174.861,345.12C174.263,345.12 173.986,344.943 173.754,344.677C171.583,342.181 175.21,335.303 182.574,327.95C185.877,324.652 189.133,322.681 191.282,322.681C192.014,322.681 192.58,322.909 193.117,323.424C193.535,323.823 193.551,325.337 192.598,327.713M156.801,336.713C153.249,333.161 159.767,323.457 167.8,315.415C169.006,314.21 170.598,312.62 172.327,311.097C172.4,311.025 172.494,310.987 172.56,310.906C172.569,310.895 172.576,310.885 172.585,310.874C175.438,308.393 178.625,306.154 181.056,306.154C181.903,306.154 182.572,306.449 183.227,307.107C184.274,308.16 184.76,309.297 184.755,310.687C184.735,316.244 177.041,323.869 173.755,327.126L172.962,327.912C172.559,328.316 172.124,328.764 171.657,329.242C168.505,332.476 163.23,337.889 159.386,337.889C158.425,337.887 157.603,337.515 156.801,336.713M143.754,325.869C140.45,322.568 146.628,313.42 154.212,305.823C161.801,298.247 166.455,296.043 169.305,298.679C170.382,299.674 172.584,301.732 168.392,307.023C166.836,308.405 165.297,309.893 163.787,311.403C160.362,314.831 156.145,319.564 153.297,324.452C150.919,326.454 146.834,328.948 143.754,325.869M133.339,314.125C131.894,312.679 133.518,309.366 134.617,307.519C136.751,303.928 140.039,300.424 141.806,298.655L142.533,297.925C144.926,295.516 148.932,291.484 151.358,291.484C151.664,291.484 152.042,291.546 152.528,292.009C153.029,292.486 153.256,293.044 153.265,293.818C153.309,297.312 149.071,303.13 144.852,307.349L143.841,308.379C141.641,310.636 137.547,314.839 134.864,314.836C134.486,314.836 133.97,314.757 133.339,314.125M191.282,317.007C190.415,317.007 189.552,317.165 188.694,317.387C189.744,315.2 190.422,312.945 190.43,310.707C190.44,307.792 189.37,305.234 187.25,303.103C185.541,301.388 183.4,300.479 181.056,300.479C179.548,300.479 178.037,300.848 176.531,301.475C176.445,298.242 174.676,295.916 173.157,294.512C168.635,290.332 163.412,291.699 158.901,294.492C158.917,294.244 158.943,293.995 158.94,293.749C158.912,291.453 158.048,289.429 156.441,287.899C155.004,286.532 153.247,285.809 151.358,285.809C146.57,285.809 142.099,290.311 138.508,293.927L137.795,294.643C135.839,296.598 132.189,300.497 129.738,304.62C125.445,311.842 127.145,315.956 129.326,318.137C130.88,319.691 132.796,320.511 134.864,320.511C135.818,320.511 136.756,320.294 137.682,319.99C136.662,323.648 136.986,327.128 139.74,329.881C141.821,331.962 144.333,332.993 147.041,332.991C148.079,332.991 149.148,332.821 150.23,332.519C149.819,335.552 150.456,338.393 152.789,340.725C154.672,342.609 156.891,343.562 159.384,343.564L159.386,343.564C162.247,343.564 165.071,342.247 167.681,340.428C167.073,343.304 167.444,346.069 169.471,348.401C170.834,349.968 172.697,350.795 174.861,350.795L174.862,350.795C183.185,350.795 194.553,338.076 197.863,329.828C200.192,324.025 198.702,320.912 197.04,319.323C195.455,317.807 193.465,317.007 191.282,317.007" style="fill:rgb(35,31,32);fill-rule:nonzero;"/>
            <path d="M68.99,257.185C95.753,274.942 117.647,260.702 127.081,257.585C149.318,250.238 159.99,270.612 159.99,270.612" style="fill:none;stroke:white;stroke-width:5.75px;"/>
            <path d="M222.353,216.719L224.505,217.22" style="fill:none;fill-rule:nonzero;"/>
            <path d="M191.252,176.953C191.252,176.953 180.183,155.137 145.651,155.116C111.118,155.095 87.119,189.941 87.119,189.941C94.369,208.39 120.977,225.409 144.51,224.454C167.819,223.508 186.471,216.598 191.252,201.294" style="fill:none;stroke:white;stroke-width:6.5px;"/>
            <path d="M200.698,176.953C200.698,176.953 219.451,151.847 247.917,151.518C286.28,151.075 317.662,184.805 317.662,184.805C305.464,200.411 280.941,222.883 249.928,223.221C221.865,223.526 206.426,217.423 200.698,202.329" style="fill:none;stroke:white;stroke-width:6.5px;"/>
            <path d="M200.698,246.006L200.698,176.953C197.367,173.394 194.224,173.504 191.252,176.953L191.252,246.006" style="fill:none;stroke:white;stroke-width:6.5px;"/>
            <path d="M317.662,184.805L200.698,189.804" style="fill:none;stroke:white;stroke-width:6.5px;"/>
            <path d="M87.119,189.941L191.252,189.804" style="fill:none;stroke:white;stroke-width:6.5px;"/>
            <path d="M167.117,189.941L154.528,155.633" style="fill:none;stroke:white;stroke-width:6.5px;"/>
            <path d="M145.651,189.39L139.186,155.518" style="fill:none;stroke:white;stroke-width:6.5px;"/>
            <path d="M124.346,189.941L108.69,168.392" style="fill:none;stroke:white;stroke-width:6.5px;"/>
            <path d="M124.346,189.941L108.69,213.838" style="fill:none;stroke:white;stroke-width:6.5px;"/>
            <path d="M145.651,189.804L126.163,221.917" style="fill:none;stroke:white;stroke-width:6.5px;"/>
            <path d="M167.117,189.804L147.864,224.275" style="fill:none;stroke:white;stroke-width:6.5px;"/>
            <path d="M220.579,188.955L236.654,152.953" style="fill:none;stroke:white;stroke-width:6.5px;"/>
            <path d="M220.579,188.955L229.285,221.917" style="fill:none;stroke:white;stroke-width:6.5px;"/>
            <path d="M236.654,188.267L262.59,152.953" style="fill:none;stroke:white;stroke-width:6.5px;"/>
            <path d="M236.654,188.267L255.619,221.917" style="fill:none;stroke:white;stroke-width:6.5px;"/>
            <path d="M265.169,187.049L281.94,160.205" style="fill:none;stroke:white;stroke-width:6.5px;"/>
            <path d="M265.169,187.049L281.94,214.82" style="fill:none;stroke:white;stroke-width:6.5px;"/>
            <path d="M287.557,186.092L296.13,167.31" style="fill:none;stroke:white;stroke-width:6.5px;"/>
            <path d="M287.557,186.092L299.399,203.443" style="fill:none;stroke:white;stroke-width:6.5px;"/>
            <path d="M156.095,156.194C156.095,156.194 138.612,131.418 144.51,111.204C150.408,90.989 167.117,80.145 167.117,80.145" style="fill:none;stroke:white;stroke-width:6.5px;"/>
            <path d="M127.191,158.406C127.191,158.406 107.558,132.997 120.297,113.941C133.036,94.885 153.544,93.421 153.544,93.421" style="fill:none;stroke:white;stroke-width:6.5px;"/>
            <path d="M134.771,100.033C134.771,100.033 129.769,76.641 147.881,63.3C167.463,48.877 177.731,71.96 177.731,71.96" style="fill:none;stroke:white;stroke-width:6.5px;"/>
            <path d="M172.469,64.337C172.469,64.337 184.624,45.929 208.313,49.719C232.001,53.509 236.844,69.091 236.844,69.091" style="fill:none;stroke:white;stroke-width:6.5px;"/>
            <path d="M255.689,116.152C255.689,116.152 269.957,106.626 263.008,86.306C256.06,65.987 217.512,69.828 217.512,69.828C217.512,69.828 207.479,81.416 195.119,81.514C181.887,81.619 179.097,72.994 179.097,72.994" style="fill:none;stroke:white;stroke-width:6.5px;"/>
            <path d="M180.189,75.053C180.189,75.053 184.519,63.721 195.363,64.458C206.207,65.195 208.983,76.961 208.983,76.961" style="fill:none;stroke:white;stroke-width:6.5px;"/>
            <path d="M217.512,70.692C217.512,70.692 209.707,96.864 194.586,100.033C179.465,103.202 167.358,86.306 167.358,86.306" style="fill:none;stroke:white;stroke-width:6.5px;"/>
            <path d="M177.088,70.692C169.042,76.461 165.463,75.456 167.358,95.856C169.253,116.257 172.938,140.187 224.947,156.163" style="fill:none;stroke:white;stroke-width:6.5px;"/>
            <path d="M170.637,114.353C170.637,114.353 188.414,132.365 213.261,116.152C238.107,99.938 242.503,68.564 217.512,69.407" style="fill:none;stroke:white;stroke-width:6.5px;"/>
            <path d="M234.216,80.251C234.216,80.251 255.268,89.41 255.689,116.152C256.111,142.893 242.071,151.737 242.071,151.737" style="fill:none;stroke:white;stroke-width:6.5px;"/>
            <path d="M263.008,106.671C263.008,106.671 277.483,118.257 275.904,130.891C274.324,143.525 263.008,153.737 263.008,153.737" style="fill:none;stroke:white;stroke-width:6.5px;"/>
            <path d="M109.057,238.584L149.57,220.265C161.361,214.144 171.247,215.64 180.219,220.794L191.668,234.181L178.458,243.868L143.405,245.101L109.057,238.584Z" style="fill:rgb(236,31,39);"/>
            <path d="M70.311,227.241C109.132,253.138 139.894,217.01 160.287,216.493C183.699,215.898 193.962,232.301 193.962,232.301" style="fill:rgb(236,31,39);stroke:white;stroke-width:5.75px;"/>
            <path d="M329.29,226.272C306.983,244.957 288.754,236.75 276.866,230.004C268.63,225.331 258.732,214.657 244.66,214.405C231.919,214.244 222.208,213.349 204.921,225.177C193.157,233.227 172.599,247.11 172.454,260.241C172.31,273.372 172.537,285.233 183.328,285.324C195.733,285.429 191.278,267.051 192.355,260.884C193.324,255.337 206.543,248.286 209.858,247.789" style="fill:rgb(236,31,39);stroke:rgb(35,31,32);stroke-width:6.3px;"/>
        </g>
    </g>
</svg>
